# xmcd
#
# Track frame offsets:
#	150
#	17934
#	33787
#	52418
#	71142
#	89591
#	106127
#	120939
#	137514
#	154320
#	175585
#	193353
#	210880
#	226946
#	246321
#	260463
#
# Disc length: 3666 seconds
#
# Revision: 3
# Processed by: cddbd v1.5.1PL2 Copyright (c) Steve Scherf et al.
# Submitted via: audiograbber 1.83.01
#
DISCID=dd0e5010
DTITLE=Various Artist - KBA28652
DYEAR=2002
DGENRE=Karaoke
TTITLE0=Brooks and Dunn - Long Goodbye, The
TTITLE1=Keith, Toby - My List
TTITLE2=McGraw, Tim - Cowboy in Me, The
TTITLE3=Cagle, Chris - I Breathe In, I Breathe Out
TTITLE4=Chesney, Kenny - Young
TTITLE5=Holy, Steve - Good Morning Beautiful
TTITLE6=Paisley, Brad - Wrapped Around
TTITLE7=Vassar, Phil - That's When I Love You
TTITLE8=Steiner, Tommy Shane - What If She's An Angel
TTITLE9=Tritt, Travis - Modern Day Bonnie and Clyde
TTITLE10=Diffie, Joe - In Another World
TTITLE11=Soggy Bottom Boys - I Am A Man Of Constant Sorrow
TTITLE12=Brooks, Garth - Wrapped Up In You
TTITLE13=Lonestar - Not A Day Goes By
TTITLE14=Emerson Drive - I Should Be Sleeping
TTITLE15=Keith, Toby - I Wanna Talk About Me
EXTD=YEAR: 2002
EXTT0=
EXTT1=
EXTT2=
EXTT3=
EXTT4=
EXTT5=
EXTT6=
EXTT7=
EXTT8=
EXTT9=
EXTT10=
EXTT11=
EXTT12=
EXTT13=
EXTT14=
EXTT15=
PLAYORDER=
